<svg xmlns="http://www.w3.org/2000/svg" viewBox="0 0 53 53">
<path d="M26.5 0C11.864 0 0 11.865 0 26.5c0 8.022 3.57 15.206 9.202 20.066.598-.793 1.364-1.464 2.286-1.925l9.113-3.908c.494-.247.896-1.045 1.18-1.614a.78.78 0 0 0-.7-1.119h-6.445s-2.33-.228-4.127-1c-1.053-.452-1.415-1.05-.757-1.986 1.925-2.74 5.904-9.192 6.033-15.855 0 0 .22-10.257 10.34-10.34 5.903.05 8.69 3.523 10 6.4.724 1.61 1.035 3.367 1.15 5.13.42 6.35 3.654 12.16 5.16 14.642.51.842.264 1.963-.58 2.47-1.387.83-3.084.53-3.084.53h-6.488c-.634 0-.914.886-.416 1.28.406.32.793.61 1.002.723l7.58 4.587c1.086.592 1.952 1.47 2.545 2.505.026.025.055.048.08.075C49.117 42.313 53 34.864 53 26.5 53 11.865 41.136 0 26.5 0z" fill="#F2E3D5"/>
</svg>